<svg xmlns="http://www.w3.org/2000/svg"
    xmlns:xlink="http://www.w3.org/1999/xlink" version="1.1" x="0px" y="0px" viewBox="0 0 100 125" fill="#fff"  style="enable-background:new 0 0 100 100;" xml:space="preserve">
    <g>
        <path d="M30.22,15.32c3.56-2.62,7.61-3.68,11.12-4.03c-0.54,0.31-1.06,0.64-1.55,1.01c-2.59,1.91-4.53,4.53-5.6,7.56   c-0.11,0.3-0.06,0.64,0.13,0.91c0.18,0.26,0.49,0.42,0.81,0.43c4.46,0.04,8.52,2.11,11.14,5.68c2.75,3.73,3.47,8.58,1.93,12.96   c-0.93,2.65-2.63,4.94-4.9,6.62c-3.01,2.22-6.71,3.13-10.4,2.57c-3.7-0.56-6.96-2.52-9.17-5.54c-1.66-2.25-2.6-4.92-2.72-7.73   C21.01,29.53,22.6,20.93,30.22,15.32z"/>
        <path d="M57.49,76.01c-1.12,2.56-2.96,4.71-5.34,6.22c-5.39,3.11-13.64,6.03-22.3,2.24c-4.05-1.77-7-4.75-9.05-7.62   c0.53,0.31,1.09,0.59,1.65,0.84c2.96,1.29,6.19,1.66,9.35,1.06c0.32-0.06,0.59-0.27,0.72-0.56c0.14-0.29,0.12-0.63-0.04-0.91   c-2.19-3.88-2.43-8.43-0.66-12.49c1.86-4.25,5.69-7.3,10.26-8.15c2.76-0.52,5.59-0.2,8.18,0.93c3.43,1.5,6.07,4.24,7.43,7.72   C59.06,68.78,58.99,72.59,57.49,76.01z"/>
        <path d="M87.86,61.86c0-0.62-0.03-1.24-0.1-1.85c-0.36-3.2-1.66-6.19-3.75-8.63c-0.19-0.22-0.47-0.35-0.76-0.35   c-0.03,0-0.06,0-0.09,0c-0.32,0.03-0.61,0.21-0.77,0.49c-2.26,3.84-6.09,6.32-10.49,6.81c-4.61,0.52-9.16-1.28-12.19-4.8   c-1.83-2.13-2.97-4.75-3.28-7.55c-0.42-3.72,0.64-7.37,2.97-10.29c2.33-2.92,5.67-4.76,9.38-5.18c2.78-0.31,5.56,0.21,8.05,1.51   c5.39,3.11,12.04,8.8,13.09,18.19C90.42,54.6,89.31,58.65,87.86,61.86z"/>
    </g>
</svg>